<mxfile host="Electron" modified="2024-03-01T04:57:11.586Z" agent="Mozilla/5.0 (X11; Linux x86_64) AppleWebKit/537.36 (KHTML, like Gecko) draw.io/23.1.5 Chrome/120.0.6099.109 Electron/28.1.0 Safari/537.36" etag="5RZwSKY1e5-_9ZmzQKQO" version="23.1.5" type="device">
  <diagram id="C5RBs43oDa-KdzZeNtuy" name="Page-1">
    <mxGraphModel dx="763" dy="843" grid="1" gridSize="10" guides="1" tooltips="1" connect="1" arrows="1" fold="1" page="1" pageScale="1" pageWidth="827" pageHeight="1169" math="0" shadow="0">
      <root>
        <mxCell id="WIyWlLk6GJQsqaUBKTNV-0" />
        <mxCell id="WIyWlLk6GJQsqaUBKTNV-1" parent="WIyWlLk6GJQsqaUBKTNV-0" />
        <mxCell id="jetbHcs6vRJvYi8LbR0U-24" style="edgeStyle=orthogonalEdgeStyle;rounded=0;orthogonalLoop=1;jettySize=auto;html=1;entryX=0.5;entryY=0;entryDx=0;entryDy=0;" edge="1" parent="WIyWlLk6GJQsqaUBKTNV-1" source="jetbHcs6vRJvYi8LbR0U-0" target="jetbHcs6vRJvYi8LbR0U-22">
          <mxGeometry relative="1" as="geometry" />
        </mxCell>
        <mxCell id="jetbHcs6vRJvYi8LbR0U-0" value="Start" style="rounded=1;whiteSpace=wrap;html=1;" vertex="1" parent="WIyWlLk6GJQsqaUBKTNV-1">
          <mxGeometry x="245" y="90" width="120" height="60" as="geometry" />
        </mxCell>
        <mxCell id="jetbHcs6vRJvYi8LbR0U-15" value="add int to sum" style="whiteSpace=wrap;html=1;" vertex="1" parent="WIyWlLk6GJQsqaUBKTNV-1">
          <mxGeometry x="245" y="710" width="120" height="60" as="geometry" />
        </mxCell>
        <mxCell id="jetbHcs6vRJvYi8LbR0U-29" style="edgeStyle=orthogonalEdgeStyle;rounded=0;orthogonalLoop=1;jettySize=auto;html=1;" edge="1" parent="WIyWlLk6GJQsqaUBKTNV-1" source="jetbHcs6vRJvYi8LbR0U-22" target="jetbHcs6vRJvYi8LbR0U-28">
          <mxGeometry relative="1" as="geometry" />
        </mxCell>
        <mxCell id="jetbHcs6vRJvYi8LbR0U-22" value="ints 3-999" style="shape=parallelogram;perimeter=parallelogramPerimeter;whiteSpace=wrap;html=1;fixedSize=1;" vertex="1" parent="WIyWlLk6GJQsqaUBKTNV-1">
          <mxGeometry x="245" y="190" width="120" height="60" as="geometry" />
        </mxCell>
        <mxCell id="jetbHcs6vRJvYi8LbR0U-40" style="edgeStyle=orthogonalEdgeStyle;rounded=0;orthogonalLoop=1;jettySize=auto;html=1;" edge="1" parent="WIyWlLk6GJQsqaUBKTNV-1" source="jetbHcs6vRJvYi8LbR0U-28" target="jetbHcs6vRJvYi8LbR0U-39">
          <mxGeometry relative="1" as="geometry" />
        </mxCell>
        <mxCell id="jetbHcs6vRJvYi8LbR0U-28" value="for every int" style="whiteSpace=wrap;html=1;" vertex="1" parent="WIyWlLk6GJQsqaUBKTNV-1">
          <mxGeometry x="245" y="290" width="120" height="60" as="geometry" />
        </mxCell>
        <mxCell id="jetbHcs6vRJvYi8LbR0U-41" style="edgeStyle=orthogonalEdgeStyle;rounded=0;orthogonalLoop=1;jettySize=auto;html=1;exitX=0.5;exitY=1;exitDx=0;exitDy=0;" edge="1" parent="WIyWlLk6GJQsqaUBKTNV-1" source="jetbHcs6vRJvYi8LbR0U-39" target="jetbHcs6vRJvYi8LbR0U-15">
          <mxGeometry relative="1" as="geometry" />
        </mxCell>
        <mxCell id="jetbHcs6vRJvYi8LbR0U-43" style="edgeStyle=orthogonalEdgeStyle;rounded=0;orthogonalLoop=1;jettySize=auto;html=1;exitX=1;exitY=0.5;exitDx=0;exitDy=0;" edge="1" parent="WIyWlLk6GJQsqaUBKTNV-1" source="jetbHcs6vRJvYi8LbR0U-39" target="jetbHcs6vRJvYi8LbR0U-42">
          <mxGeometry relative="1" as="geometry" />
        </mxCell>
        <mxCell id="jetbHcs6vRJvYi8LbR0U-39" value="does int modulus 3 == 0" style="rhombus;whiteSpace=wrap;html=1;" vertex="1" parent="WIyWlLk6GJQsqaUBKTNV-1">
          <mxGeometry x="230" y="410" width="150" height="130" as="geometry" />
        </mxCell>
        <mxCell id="jetbHcs6vRJvYi8LbR0U-46" style="edgeStyle=orthogonalEdgeStyle;rounded=0;orthogonalLoop=1;jettySize=auto;html=1;entryX=0.5;entryY=0;entryDx=0;entryDy=0;" edge="1" parent="WIyWlLk6GJQsqaUBKTNV-1" source="jetbHcs6vRJvYi8LbR0U-42" target="jetbHcs6vRJvYi8LbR0U-15">
          <mxGeometry relative="1" as="geometry">
            <Array as="points">
              <mxPoint x="505" y="640" />
              <mxPoint x="305" y="640" />
            </Array>
          </mxGeometry>
        </mxCell>
        <mxCell id="jetbHcs6vRJvYi8LbR0U-48" style="edgeStyle=orthogonalEdgeStyle;rounded=0;orthogonalLoop=1;jettySize=auto;html=1;" edge="1" parent="WIyWlLk6GJQsqaUBKTNV-1" source="jetbHcs6vRJvYi8LbR0U-42">
          <mxGeometry relative="1" as="geometry">
            <mxPoint x="630" y="840" as="targetPoint" />
          </mxGeometry>
        </mxCell>
        <mxCell id="jetbHcs6vRJvYi8LbR0U-42" value="does int modulus 5 == 0" style="rhombus;whiteSpace=wrap;html=1;" vertex="1" parent="WIyWlLk6GJQsqaUBKTNV-1">
          <mxGeometry x="430" y="410" width="150" height="130" as="geometry" />
        </mxCell>
        <mxCell id="jetbHcs6vRJvYi8LbR0U-44" value="no" style="text;html=1;align=center;verticalAlign=middle;resizable=0;points=[];autosize=1;strokeColor=none;fillColor=none;" vertex="1" parent="WIyWlLk6GJQsqaUBKTNV-1">
          <mxGeometry x="380" y="438" width="40" height="30" as="geometry" />
        </mxCell>
        <mxCell id="jetbHcs6vRJvYi8LbR0U-45" value="yes" style="text;html=1;align=center;verticalAlign=middle;resizable=0;points=[];autosize=1;strokeColor=none;fillColor=none;" vertex="1" parent="WIyWlLk6GJQsqaUBKTNV-1">
          <mxGeometry x="300" y="598" width="40" height="30" as="geometry" />
        </mxCell>
        <mxCell id="jetbHcs6vRJvYi8LbR0U-47" value="yes" style="text;html=1;align=center;verticalAlign=middle;resizable=0;points=[];autosize=1;strokeColor=none;fillColor=none;" vertex="1" parent="WIyWlLk6GJQsqaUBKTNV-1">
          <mxGeometry x="440" y="588" width="40" height="30" as="geometry" />
        </mxCell>
        <mxCell id="jetbHcs6vRJvYi8LbR0U-49" value="End" style="rounded=1;whiteSpace=wrap;html=1;" vertex="1" parent="WIyWlLk6GJQsqaUBKTNV-1">
          <mxGeometry x="570" y="840" width="120" height="60" as="geometry" />
        </mxCell>
      </root>
    </mxGraphModel>
  </diagram>
</mxfile>
